<svg width="16" height="16" viewBox="0 0 16 16" fill="none" xmlns="http://www.w3.org/2000/svg">
<path fill-rule="evenodd" clip-rule="evenodd" d="M4.60938 6.20312H3.40937V7.40312H4.60938V6.20312ZM7.28359 6.20625H6.08359V7.40625H7.28359V6.20625ZM8.75781 6.20625H9.95781V7.40625H8.75781V6.20625ZM12.6312 6.20625H11.4312V7.40625H12.6312V6.20625ZM11.8609 9.35938L10.8852 10.3352L9.91016 9.35938L9.06094 10.2078L10.0375 11.1836L9.06094 12.1594L9.91016 13.0078L10.8852 12.032L11.8609 13.0078L12.7102 12.1594L11.7344 11.1836L12.7102 10.2078L11.8609 9.35938ZM5.11641 10.3352L6.09219 9.35938L6.94141 10.2078L5.96484 11.1836L6.94141 12.1594L6.09219 13.0078L5.11641 12.032L4.14141 13.0078L3.29219 12.1594L4.26797 11.1836L3.29219 10.2078L4.14141 9.35938L5.11641 10.3352ZM12.2141 3.59922V2.40937H14.8023V14.8016H1.20156V2.40937H3.79297V3.59922H4.99297V2.40937H11.0141V3.59922H12.2141ZM11.0133 0V1.20781H4.99219V0H3.79219V1.20781H0V16H16V1.20781H12.2133V0H11.0133Z" fill="#CCCFDE"/>
</svg>
